STARTFONT 2.1
FONT -URW-ITC Bookman-Demi-I-Normal--12-120-72-72-P-72-ISO8859-1
SIZE 12 72 72
FONTBOUNDINGBOX 21 16 -4 -3

STARTPROPERTIES 22
FONTNAME_REGISTRY "-"
FOUNDRY "URW"
FAMILY_NAME "ITC Bookman"
WEIGHT_NAME "Demi"
SLANT "I"
SETWIDTH_NAME "Normal"
ADD_STYLE_NAME ""
PIXEL_SIZE 12
POINT_SIZE 120
RESOLUTION_X 72
RESOLUTION_Y 72
SPACING "P"
CHARSET_REGISTRY "ISO8859"
CHARSET_ENCODING "1"
FULL_NAME "Bookman-DemiItalic"
AVERAGE_WIDTH 72
WEIGHT 10
X_HEIGHT 6
QUAD_WIDTH 8
DEFAULT_CHAR 32
FONT_DESCENT 3
FONT_ASCENT 13
ENDPROPERTIES

CHARS 190

STARTCHAR space
ENCODING 32
SWIDTH 340 0
DWIDTH 4 0
BBX 1 1 0 0
BITMAP
00
ENDCHAR

STARTCHAR exclam
ENCODING 33
SWIDTH 320 0
DWIDTH 4 0
BBX 3 9 1 0
BITMAP
60
60
60
60
40
40
00
C0
C0
ENDCHAR

STARTCHAR quotedbl
ENCODING 34
SWIDTH 380 0
DWIDTH 5 0
BBX 5 4 1 5
BITMAP
D8
D8
90
90
ENDCHAR

STARTCHAR numbersign
ENCODING 35
SWIDTH 680 0
DWIDTH 7 0
BBX 6 9 1 0
BITMAP
28
28
28
FC
28
28
FC
50
50
ENDCHAR

STARTCHAR dollar
ENCODING 36
SWIDTH 680 0
DWIDTH 8 0
BBX 8 12 1 -2
BITMAP
08
3E
63
60
78
3E
06
06
C6
FC
10
10
ENDCHAR

STARTCHAR percent
ENCODING 37
SWIDTH 880 0
DWIDTH 11 0
BBX 10 9 1 0
BITMAP
7100
D200
9600
E400
0800
0B80
1680
34C0
2380
ENDCHAR

STARTCHAR ampersand
ENCODING 38
SWIDTH 980 0
DWIDTH 12 0
BBX 12 9 1 0
BITMAP
1C00
36C0
36C0
3440
3C40
6E80
C730
E760
7DC0
ENDCHAR

STARTCHAR quoteright
ENCODING 39
SWIDTH 320 0
DWIDTH 4 0
BBX 2 3 2 6
BITMAP
C0
C0
80
ENDCHAR

STARTCHAR parenleft
ENCODING 40
SWIDTH 260 0
DWIDTH 3 0
BBX 4 11 0 -2
BITMAP
10
20
60
40
40
C0
C0
C0
40
60
20
ENDCHAR

STARTCHAR parenright
ENCODING 41
SWIDTH 260 0
DWIDTH 3 0
BBX 4 11 0 -2
BITMAP
60
30
10
10
10
30
30
20
20
60
C0
ENDCHAR

STARTCHAR asterisk
ENCODING 42
SWIDTH 460 0
DWIDTH 6 0
BBX 5 5 2 4
BITMAP
A8
70
F8
70
A8
ENDCHAR

STARTCHAR plus
ENCODING 43
SWIDTH 600 0
DWIDTH 7 0
BBX 5 5 2 1
BITMAP
20
20
F8
20
20
ENDCHAR

STARTCHAR comma
ENCODING 44
SWIDTH 340 0
DWIDTH 4 0
BBX 2 3 1 -1
BITMAP
C0
C0
80
ENDCHAR

STARTCHAR minus
ENCODING 45
SWIDTH 600 0
DWIDTH 7 0
BBX 6 1 1 3
BITMAP
FC
ENDCHAR

STARTCHAR period
ENCODING 46
SWIDTH 340 0
DWIDTH 4 0
BBX 2 2 1 0
BITMAP
C0
C0
ENDCHAR

STARTCHAR slash
ENCODING 47
SWIDTH 360 0
DWIDTH 4 0
BBX 6 11 0 -2
BITMAP
0C
08
18
18
10
30
20
60
60
40
C0
ENDCHAR

STARTCHAR zero
ENCODING 48
SWIDTH 680 0
DWIDTH 8 0
BBX 7 9 1 0
BITMAP
1C
66
66
C6
C6
C6
C6
CC
78
ENDCHAR

STARTCHAR one
ENCODING 49
SWIDTH 680 0
DWIDTH 8 0
BBX 5 9 1 0
BITMAP
78
18
18
38
30
30
30
30
F8
ENDCHAR

STARTCHAR two
ENCODING 50
SWIDTH 680 0
DWIDTH 8 0
BBX 7 9 1 0
BITMAP
3C
66
66
06
0C
08
30
62
FC
ENDCHAR

STARTCHAR three
ENCODING 51
SWIDTH 680 0
DWIDTH 8 0
BBX 7 9 1 0
BITMAP
3C
66
66
06
1C
06
C6
CE
78
ENDCHAR

STARTCHAR four
ENCODING 52
SWIDTH 680 0
DWIDTH 8 0
BBX 8 9 1 0
BITMAP
06
0E
16
2C
6C
CC
FF
0C
3E
ENDCHAR

STARTCHAR five
ENCODING 53
SWIDTH 680 0
DWIDTH 8 0
BBX 7 9 1 0
BITMAP
3E
40
40
7C
4E
06
C6
CC
78
ENDCHAR

STARTCHAR six
ENCODING 54
SWIDTH 680 0
DWIDTH 8 0
BBX 7 9 1 0
BITMAP
1E
62
60
C0
FC
C6
C6
C6
7C
ENDCHAR

STARTCHAR seven
ENCODING 55
SWIDTH 680 0
DWIDTH 8 0
BBX 7 9 1 0
BITMAP
7E
82
04
0C
18
18
30
30
70
ENDCHAR

STARTCHAR eight
ENCODING 56
SWIDTH 680 0
DWIDTH 8 0
BBX 7 9 1 0
BITMAP
3E
62
62
76
3E
CE
C6
C6
7C
ENDCHAR

STARTCHAR nine
ENCODING 57
SWIDTH 680 0
DWIDTH 8 0
BBX 8 9 1 0
BITMAP
1E
66
63
63
67
7E
06
CC
F8
ENDCHAR

STARTCHAR colon
ENCODING 58
SWIDTH 340 0
DWIDTH 4 0
BBX 3 6 1 0
BITMAP
60
60
00
00
C0
C0
ENDCHAR

STARTCHAR semicolon
ENCODING 59
SWIDTH 340 0
DWIDTH 4 0
BBX 3 7 1 -1
BITMAP
60
60
00
00
C0
C0
80
ENDCHAR

STARTCHAR less
ENCODING 60
SWIDTH 620 0
DWIDTH 7 0
BBX 6 6 1 0
BITMAP
04
38
E0
E0
18
04
ENDCHAR

STARTCHAR equal
ENCODING 61
SWIDTH 600 0
DWIDTH 7 0
BBX 6 3 1 3
BITMAP
FC
00
FC
ENDCHAR

STARTCHAR greater
ENCODING 62
SWIDTH 620 0
DWIDTH 7 0
BBX 6 6 1 0
BITMAP
80
70
1C
1C
70
80
ENDCHAR

STARTCHAR question
ENCODING 63
SWIDTH 620 0
DWIDTH 7 0
BBX 6 9 2 0
BITMAP
78
CC
CC
0C
18
20
00
30
20
ENDCHAR

STARTCHAR at
ENCODING 64
SWIDTH 780 0
DWIDTH 9 0
BBX 8 9 1 0
BITMAP
3C
63
81
9F
B5
A5
BF
63
1E
ENDCHAR

STARTCHAR A
ENCODING 65
SWIDTH 720 0
DWIDTH 9 0
BBX 10 9 0 0
BITMAP
0600
0700
0B00
1B00
1300
3F00
2300
6300
F7C0
ENDCHAR

STARTCHAR B
ENCODING 66
SWIDTH 720 0
DWIDTH 9 0
BBX 9 9 0 0
BITMAP
7F00
3180
3180
3300
3F00
3300
7380
6300
FE00
ENDCHAR

STARTCHAR C
ENCODING 67
SWIDTH 700 0
DWIDTH 8 0
BBX 8 9 1 0
BITMAP
1F
73
61
E0
C0
C0
C1
62
3C
ENDCHAR

STARTCHAR D
ENCODING 68
SWIDTH 760 0
DWIDTH 9 0
BBX 9 9 0 0
BITMAP
7F00
3180
3180
3180
3180
3180
7180
6300
FE00
ENDCHAR

STARTCHAR E
ENCODING 69
SWIDTH 720 0
DWIDTH 9 0
BBX 9 9 0 0
BITMAP
7F80
3180
3080
3280
3C00
3400
7080
6300
FF00
ENDCHAR

STARTCHAR F
ENCODING 70
SWIDTH 660 0
DWIDTH 8 0
BBX 9 9 0 0
BITMAP
7F00
3180
3080
3600
3C00
3400
7000
6000
F800
ENDCHAR

STARTCHAR G
ENCODING 71
SWIDTH 760 0
DWIDTH 9 0
BBX 9 9 1 0
BITMAP
1F00
7300
6100
E000
C000
C780
C300
6700
3A00
ENDCHAR

STARTCHAR H
ENCODING 72
SWIDTH 800 0
DWIDTH 10 0
BBX 11 9 0 0
BITMAP
7FE0
31C0
3180
3180
3F80
3180
7180
6380
F780
ENDCHAR

STARTCHAR I
ENCODING 73
SWIDTH 380 0
DWIDTH 5 0
BBX 6 9 0 0
BITMAP
7C
30
30
30
30
30
70
60
F0
ENDCHAR

STARTCHAR J
ENCODING 74
SWIDTH 620 0
DWIDTH 7 0
BBX 9 9 0 0
BITMAP
0F80
0600
0600
0600
0600
C600
CC00
CC00
7800
ENDCHAR

STARTCHAR K
ENCODING 75
SWIDTH 780 0
DWIDTH 9 0
BBX 10 9 0 0
BITMAP
7FC0
3100
3600
3E00
3600
3300
7300
6380
F7C0
ENDCHAR

STARTCHAR L
ENCODING 76
SWIDTH 640 0
DWIDTH 8 0
BBX 9 9 0 0
BITMAP
7C00
3000
3000
3000
3000
3000
7180
6300
FE00
ENDCHAR

STARTCHAR M
ENCODING 77
SWIDTH 860 0
DWIDTH 10 0
BBX 11 9 0 0
BITMAP
78E0
39C0
39C0
2AC0
2EC0
2CC0
4DC0
4D80
EBC0
ENDCHAR

STARTCHAR N
ENCODING 78
SWIDTH 740 0
DWIDTH 9 0
BBX 10 9 0 0
BITMAP
79C0
3980
2D00
2D00
2D00
2500
6500
6700
E300
ENDCHAR

STARTCHAR O
ENCODING 79
SWIDTH 760 0
DWIDTH 9 0
BBX 9 9 1 0
BITMAP
1E00
7300
6180
E180
C180
C300
C300
6600
3C00
ENDCHAR

STARTCHAR P
ENCODING 80
SWIDTH 640 0
DWIDTH 8 0
BBX 9 9 0 0
BITMAP
7F00
3380
3180
3180
3300
3E00
3000
6000
F800
ENDCHAR

STARTCHAR Q
ENCODING 81
SWIDTH 760 0
DWIDTH 9 0
BBX 9 12 0 -3
BITMAP
1E00
3380
6180
6180
E180
6180
6F80
7300
FF00
C300
C300
3C00
ENDCHAR

STARTCHAR R
ENCODING 82
SWIDTH 740 0
DWIDTH 9 0
BBX 9 9 0 0
BITMAP
7F00
3180
3180
3F80
3700
3600
6300
6300
F380
ENDCHAR

STARTCHAR S
ENCODING 83
SWIDTH 700 0
DWIDTH 8 0
BBX 8 9 1 0
BITMAP
3D
63
61
78
3E
07
83
C7
BC
ENDCHAR

STARTCHAR T
ENCODING 84
SWIDTH 700 0
DWIDTH 8 0
BBX 9 9 1 0
BITMAP
7F00
5D00
9880
1800
1800
1800
1800
1800
7C00
ENDCHAR

STARTCHAR U
ENCODING 85
SWIDTH 740 0
DWIDTH 9 0
BBX 9 9 1 0
BITMAP
F380
6300
6200
6200
E200
C200
C200
C400
7800
ENDCHAR

STARTCHAR V
ENCODING 86
SWIDTH 660 0
DWIDTH 8 0
BBX 9 9 1 0
BITMAP
F380
6300
6200
6600
3400
3400
3800
3800
1000
ENDCHAR

STARTCHAR W
ENCODING 87
SWIDTH 1000 0
DWIDTH 12 0
BBX 12 9 1 0
BITMAP
FF70
6620
6640
6640
6BC0
6B80
7380
3300
2300
ENDCHAR

STARTCHAR X
ENCODING 88
SWIDTH 740 0
DWIDTH 9 0
BBX 10 9 0 0
BITMAP
7FC0
3980
1900
0E00
0E00
1E00
1600
2700
F780
ENDCHAR

STARTCHAR Y
ENCODING 89
SWIDTH 660 0
DWIDTH 8 0
BBX 9 9 1 0
BITMAP
F780
6300
7600
3400
3C00
1800
3000
3000
7800
ENDCHAR

STARTCHAR Z
ENCODING 90
SWIDTH 680 0
DWIDTH 8 0
BBX 9 9 0 0
BITMAP
3F80
6700
4600
0C00
1C00
3800
3100
6300
FE00
ENDCHAR

STARTCHAR bracketleft
ENCODING 91
SWIDTH 260 0
DWIDTH 3 0
BBX 4 11 0 -2
BITMAP
70
60
60
60
60
C0
C0
C0
C0
C0
E0
ENDCHAR

STARTCHAR backslash
ENCODING 92
SWIDTH 580 0
DWIDTH 7 0
BBX 6 11 1 -2
BITMAP
C0
40
60
60
20
30
10
18
18
08
0C
ENDCHAR

STARTCHAR bracketright
ENCODING 93
SWIDTH 260 0
DWIDTH 3 0
BBX 4 11 0 -2
BITMAP
70
30
30
30
30
30
60
60
60
60
E0
ENDCHAR

STARTCHAR asciicircum
ENCODING 94
SWIDTH 620 0
DWIDTH 7 0
BBX 6 5 1 4
BITMAP
30
30
78
48
CC
ENDCHAR

STARTCHAR underscore
ENCODING 95
SWIDTH 500 0
DWIDTH 6 0
BBX 6 1 0 -2
BITMAP
FC
ENDCHAR

STARTCHAR quoteleft
ENCODING 96
SWIDTH 320 0
DWIDTH 4 0
BBX 2 3 2 6
BITMAP
40
C0
C0
ENDCHAR

STARTCHAR a
ENCODING 97
SWIDTH 680 0
DWIDTH 8 0
BBX 8 6 1 0
BITMAP
3E
66
C6
CC
CC
77
ENDCHAR

STARTCHAR b
ENCODING 98
SWIDTH 600 0
DWIDTH 7 0
BBX 7 9 1 0
BITMAP
E0
60
60
7C
66
66
C6
CC
F8
ENDCHAR

STARTCHAR c
ENCODING 99
SWIDTH 560 0
DWIDTH 7 0
BBX 6 6 1 0
BITMAP
3C
6C
C0
C0
C4
78
ENDCHAR

STARTCHAR d
ENCODING 100
SWIDTH 680 0
DWIDTH 8 0
BBX 8 9 1 0
BITMAP
0F
06
06
3E
66
C6
C6
CC
77
ENDCHAR

STARTCHAR e
ENCODING 101
SWIDTH 560 0
DWIDTH 7 0
BBX 6 6 1 0
BITMAP
3C
64
FC
C0
C4
78
ENDCHAR

STARTCHAR f
ENCODING 102
SWIDTH 420 0
DWIDTH 5 0
BBX 10 13 -1 -3
BITMAP
01C0
02C0
0600
0600
0F00
0600
0600
0600
0600
0600
0C00
DC00
F000
ENDCHAR

STARTCHAR g
ENCODING 103
SWIDTH 620 0
DWIDTH 7 0
BBX 8 9 0 -3
BITMAP
1F
73
66
66
66
3E
06
CC
F8
ENDCHAR

STARTCHAR h
ENCODING 104
SWIDTH 700 0
DWIDTH 8 0
BBX 8 9 1 0
BITMAP
E0
60
60
7C
66
66
CC
CC
CF
ENDCHAR

STARTCHAR i
ENCODING 105
SWIDTH 380 0
DWIDTH 5 0
BBX 4 10 1 0
BITMAP
60
60
00
00
E0
60
60
C0
C0
70
ENDCHAR

STARTCHAR j
ENCODING 106
SWIDTH 320 0
DWIDTH 4 0
BBX 7 13 -1 -3
BITMAP
06
0C
00
00
1C
0C
0C
0C
18
18
18
D8
F0
ENDCHAR

STARTCHAR k
ENCODING 107
SWIDTH 700 0
DWIDTH 8 0
BBX 8 9 1 0
BITMAP
E0
60
60
67
6E
78
F8
D8
CF
ENDCHAR

STARTCHAR l
ENCODING 108
SWIDTH 380 0
DWIDTH 5 0
BBX 4 9 1 0
BITMAP
E0
60
60
60
C0
C0
C0
C0
F0
ENDCHAR

STARTCHAR m
ENCODING 109
SWIDTH 960 0
DWIDTH 12 0
BBX 11 6 1 0
BITMAP
FFC0
6CC0
6CC0
CCC0
D980
D9E0
ENDCHAR

STARTCHAR n
ENCODING 110
SWIDTH 680 0
DWIDTH 8 0
BBX 8 6 1 0
BITMAP
FC
66
66
4C
CC
C7
ENDCHAR

STARTCHAR o
ENCODING 111
SWIDTH 600 0
DWIDTH 7 0
BBX 7 6 1 0
BITMAP
3C
66
C6
C6
CC
78
ENDCHAR

STARTCHAR p
ENCODING 112
SWIDTH 660 0
DWIDTH 8 0
BBX 8 9 0 -3
BITMAP
77
3B
33
33
33
3E
60
60
F0
ENDCHAR

STARTCHAR q
ENCODING 113
SWIDTH 620 0
DWIDTH 7 0
BBX 7 9 1 -3
BITMAP
3E
66
C6
CC
CC
7C
0C
0C
3E
ENDCHAR

STARTCHAR r
ENCODING 114
SWIDTH 500 0
DWIDTH 6 0
BBX 6 6 1 0
BITMAP
DC
7C
60
60
C0
C0
ENDCHAR

STARTCHAR s
ENCODING 115
SWIDTH 540 0
DWIDTH 6 0
BBX 6 6 0 0
BITMAP
3C
64
78
3C
CC
78
ENDCHAR

STARTCHAR t
ENCODING 116
SWIDTH 440 0
DWIDTH 5 0
BBX 5 8 1 0
BITMAP
20
60
F8
60
40
C0
D0
E0
ENDCHAR

STARTCHAR u
ENCODING 117
SWIDTH 680 0
DWIDTH 8 0
BBX 8 6 1 0
BITMAP
E6
66
64
4C
7E
77
ENDCHAR

STARTCHAR v
ENCODING 118
SWIDTH 540 0
DWIDTH 6 0
BBX 6 6 1 0
BITMAP
EC
6C
64
44
48
70
ENDCHAR

STARTCHAR w
ENCODING 119
SWIDTH 860 0
DWIDTH 10 0
BBX 10 6 1 0
BITMAP
E6C0
66C0
64C0
4CC0
4C80
7700
ENDCHAR

STARTCHAR x
ENCODING 120
SWIDTH 620 0
DWIDTH 7 0
BBX 8 6 0 0
BITMAP
77
3C
18
38
38
CF
ENDCHAR

STARTCHAR y
ENCODING 121
SWIDTH 600 0
DWIDTH 7 0
BBX 7 9 0 -3
BITMAP
76
66
66
66
66
7C
0C
CC
F8
ENDCHAR

STARTCHAR z
ENCODING 122
SWIDTH 560 0
DWIDTH 7 0
BBX 7 6 0 0
BITMAP
7E
4C
18
30
64
FC
ENDCHAR

STARTCHAR braceleft
ENCODING 123
SWIDTH 300 0
DWIDTH 4 0
BBX 4 11 1 -2
BITMAP
30
20
20
60
40
80
40
40
40
40
60
ENDCHAR

STARTCHAR bar
ENCODING 124
SWIDTH 620 0
DWIDTH 7 0
BBX 1 9 3 0
BITMAP
80
80
80
80
80
80
80
80
80
ENDCHAR

STARTCHAR braceright
ENCODING 125
SWIDTH 300 0
DWIDTH 4 0
BBX 4 11 0 -2
BITMAP
60
20
20
30
10
30
60
40
40
40
C0
ENDCHAR

STARTCHAR asciitilde
ENCODING 126
SWIDTH 620 0
DWIDTH 7 0
BBX 6 2 1 2
BITMAP
64
98
ENDCHAR

STARTCHAR exclamdown
ENCODING 161
SWIDTH 320 0
DWIDTH 4 0
BBX 3 9 1 -3
BITMAP
60
60
00
40
40
40
C0
C0
C0
ENDCHAR

STARTCHAR cent
ENCODING 162
SWIDTH 680 0
DWIDTH 8 0
BBX 5 8 2 1
BITMAP
10
78
C8
C0
C8
70
20
20
ENDCHAR

STARTCHAR sterling
ENCODING 163
SWIDTH 680 0
DWIDTH 8 0
BBX 9 9 0 0
BITMAP
0780
0C80
0C80
0800
3E00
1800
FB00
B900
E700
ENDCHAR

STARTCHAR currency
ENCODING 164
SWIDTH 680 0
DWIDTH 8 0
BBX 6 6 0 1
BITMAP
FC
C8
84
84
CC
B4
ENDCHAR

STARTCHAR yen
ENCODING 165
SWIDTH 680 0
DWIDTH 8 0
BBX 8 9 1 0
BITMAP
F7
66
66
24
FE
30
FE
30
78
ENDCHAR

STARTCHAR brokenbar
ENCODING 166
SWIDTH 620 0
DWIDTH 7 0
BBX 1 9 3 0
BITMAP
80
80
80
00
00
80
80
80
80
ENDCHAR

STARTCHAR section
ENCODING 167
SWIDTH 620 0
DWIDTH 7 0
BBX 7 11 1 -2
BITMAP
1C
26
66
7C
5E
46
74
3C
CC
CC
78
ENDCHAR

STARTCHAR dieresis
ENCODING 168
SWIDTH 520 0
DWIDTH 6 0
BBX 5 2 2 7
BITMAP
D8
D0
ENDCHAR

STARTCHAR copyright
ENCODING 169
SWIDTH 780 0
DWIDTH 9 0
BBX 9 9 1 0
BITMAP
3E00
6300
C180
9E80
A080
A080
DF80
6300
3E00
ENDCHAR

STARTCHAR ordfeminine
ENCODING 170
SWIDTH 440 0
DWIDTH 5 0
BBX 5 6 1 3
BITMAP
38
48
50
50
38
F8
ENDCHAR

STARTCHAR guillemotleft
ENCODING 171
SWIDTH 380 0
DWIDTH 5 0
BBX 4 5 1 1
BITMAP
50
50
A0
A0
50
ENDCHAR

STARTCHAR logicalnot
ENCODING 172
SWIDTH 620 0
DWIDTH 7 0
BBX 6 3 1 1
BITMAP
FC
04
04
ENDCHAR

STARTCHAR hyphen
ENCODING 173
SWIDTH 280 0
DWIDTH 3 0
BBX 3 1 1 3
BITMAP
E0
ENDCHAR

STARTCHAR registered
ENCODING 174
SWIDTH 780 0
DWIDTH 9 0
BBX 9 9 1 0
BITMAP
3E00
6300
C180
BC80
9480
9E80
F380
6300
3E00
ENDCHAR

STARTCHAR macron
ENCODING 175
SWIDTH 480 0
DWIDTH 6 0
BBX 4 1 2 8
BITMAP
F0
ENDCHAR

STARTCHAR degree
ENCODING 176
SWIDTH 400 0
DWIDTH 4 0
BBX 4 5 1 4
BITMAP
60
90
90
90
60
ENDCHAR

STARTCHAR plusminus
ENCODING 177
SWIDTH 600 0
DWIDTH 7 0
BBX 5 7 1 0
BITMAP
20
20
F8
20
20
00
F8
ENDCHAR

STARTCHAR twosuperior
ENCODING 178
SWIDTH 408 0
DWIDTH 5 0
BBX 4 5 -4 4
BITMAP
F0
10
30
40
F0
ENDCHAR

STARTCHAR threesuperior
ENCODING 179
SWIDTH 408 0
DWIDTH 5 0
BBX 4 5 -4 4
BITMAP
70
10
30
10
E0
ENDCHAR

STARTCHAR acute
ENCODING 180
SWIDTH 340 0
DWIDTH 4 0
BBX 3 2 2 8
BITMAP
60
C0
ENDCHAR

STARTCHAR mu
ENCODING 181
SWIDTH 680 0
DWIDTH 8 0
BBX 8 9 1 -3
BITMAP
F6
66
66
66
7F
76
C0
C0
C0
ENDCHAR

STARTCHAR paragraph
ENCODING 182
SWIDTH 680 0
DWIDTH 8 0
BBX 8 12 1 -3
BITMAP
3F
6B
CA
CA
CA
CA
DA
74
14
14
14
7E
ENDCHAR

STARTCHAR periodcentered
ENCODING 183
SWIDTH 340 0
DWIDTH 6 0
BBX 2 2 2 3
BITMAP
C0
C0
ENDCHAR

STARTCHAR cedilla
ENCODING 184
SWIDTH 360 0
DWIDTH 4 0
BBX 3 3 1 -3
BITMAP
40
E0
C0
ENDCHAR

STARTCHAR onesuperior
ENCODING 185
SWIDTH 408 0
DWIDTH 5 0
BBX 3 5 -4 4
BITMAP
60
60
40
40
E0
ENDCHAR

STARTCHAR ordmasculine
ENCODING 186
SWIDTH 440 0
DWIDTH 5 0
BBX 5 6 1 3
BITMAP
38
48
48
70
00
F8
ENDCHAR

STARTCHAR guillemotright
ENCODING 187
SWIDTH 380 0
DWIDTH 5 0
BBX 4 5 1 1
BITMAP
A0
A0
50
50
A0
ENDCHAR

STARTCHAR onequarter
ENCODING 188
SWIDTH 1020 0
DWIDTH 11 0
BBX 11 9 -4 0
BITMAP
6100
6300
4200
4400
E4C0
0940
1A40
13E0
2080
ENDCHAR

STARTCHAR onehalf
ENCODING 189
SWIDTH 1020 0
DWIDTH 11 0
BBX 10 9 -4 0
BITMAP
6100
6300
4200
4400
E7C0
0840
18C0
1100
23C0
ENDCHAR

STARTCHAR threequarters
ENCODING 190
SWIDTH 1020 0
DWIDTH 11 0
BBX 11 9 -4 0
BITMAP
7100
1300
3200
1400
F4C0
0940
1A40
13E0
2080
ENDCHAR

STARTCHAR questiondown
ENCODING 191
SWIDTH 620 0
DWIDTH 7 0
BBX 6 9 1 -3
BITMAP
18
18
00
10
70
E0
CC
CC
78
ENDCHAR

STARTCHAR Agrave
ENCODING 192
SWIDTH 720 0
DWIDTH 9 0
BBX 10 12 0 0
BITMAP
0600
0300
0000
0600
0700
0B00
1B00
1300
3F00
2300
6300
F7C0
ENDCHAR

STARTCHAR Aacute
ENCODING 193
SWIDTH 720 0
DWIDTH 9 0
BBX 10 12 0 0
BITMAP
0300
0600
0000
0600
0700
0B00
1B00
1300
3F00
2300
6300
F7C0
ENDCHAR

STARTCHAR Acircumflex
ENCODING 194
SWIDTH 720 0
DWIDTH 9 0
BBX 10 12 0 0
BITMAP
0600
0900
0000
0600
0700
0B00
1B00
1300
3F00
2300
6300
F7C0
ENDCHAR

STARTCHAR Atilde
ENCODING 195
SWIDTH 720 0
DWIDTH 9 0
BBX 10 12 0 0
BITMAP
0F00
1600
0000
0600
0700
0B00
1B00
1300
3F00
2300
6300
F7C0
ENDCHAR

STARTCHAR Adieresis
ENCODING 196
SWIDTH 720 0
DWIDTH 9 0
BBX 10 12 0 0
BITMAP
0D80
0D80
0000
0600
0700
0B00
1B00
1300
3F00
2300
6300
F7C0
ENDCHAR

STARTCHAR Aring
ENCODING 197
SWIDTH 720 0
DWIDTH 9 0
BBX 10 13 0 0
BITMAP
0700
0500
0700
0000
0600
0700
0B00
1B00
1300
3F00
2300
6300
F7C0
ENDCHAR

STARTCHAR AE
ENCODING 198
SWIDTH 1140 0
DWIDTH 14 0
BBX 15 9 0 0
BITMAP
00FE
01C6
02C2
06D0
0CF0
0F90
1186
218C
F3F8
ENDCHAR

STARTCHAR Ccedilla
ENCODING 199
SWIDTH 700 0
DWIDTH 8 0
BBX 8 12 1 -3
BITMAP
1F
73
61
E0
C0
C0
C1
62
3C
10
38
30
ENDCHAR

STARTCHAR Egrave
ENCODING 200
SWIDTH 720 0
DWIDTH 9 0
BBX 9 12 0 0
BITMAP
0C00
0600
0000
7F80
3180
3080
3280
3C00
3400
7080
6300
FF00
ENDCHAR

STARTCHAR Eacute
ENCODING 201
SWIDTH 720 0
DWIDTH 9 0
BBX 9 12 0 0
BITMAP
0600
0C00
0000
7F80
3180
3080
3280
3C00
3400
7080
6300
FF00
ENDCHAR

STARTCHAR Ecircumflex
ENCODING 202
SWIDTH 720 0
DWIDTH 9 0
BBX 9 12 0 0
BITMAP
0C00
1200
0000
7F80
3180
3080
3280
3C00
3400
7080
6300
FF00
ENDCHAR

STARTCHAR Edieresis
ENCODING 203
SWIDTH 720 0
DWIDTH 9 0
BBX 9 12 0 0
BITMAP
1B00
1A00
0000
7F80
3180
3080
3280
3C00
3400
7080
6300
FF00
ENDCHAR

STARTCHAR Igrave
ENCODING 204
SWIDTH 380 0
DWIDTH 5 0
BBX 6 12 0 0
BITMAP
30
18
00
7C
30
30
30
30
30
70
60
F0
ENDCHAR

STARTCHAR Iacute
ENCODING 205
SWIDTH 380 0
DWIDTH 5 0
BBX 6 12 0 0
BITMAP
18
30
00
7C
30
30
30
30
30
70
60
F0
ENDCHAR

STARTCHAR Icircumflex
ENCODING 206
SWIDTH 380 0
DWIDTH 5 0
BBX 6 12 0 0
BITMAP
30
48
00
7C
30
30
30
30
30
70
60
F0
ENDCHAR

STARTCHAR Idieresis
ENCODING 207
SWIDTH 380 0
DWIDTH 5 0
BBX 6 12 0 0
BITMAP
6C
68
00
7C
30
30
30
30
30
70
60
F0
ENDCHAR

STARTCHAR Eth
ENCODING 208
SWIDTH 760 0
DWIDTH 9 0
BBX 9 9 0 0
BITMAP
7F00
3180
3180
3180
7D80
3180
3180
6300
FE00
ENDCHAR

STARTCHAR Ntilde
ENCODING 209
SWIDTH 740 0
DWIDTH 9 0
BBX 10 12 0 0
BITMAP
0F00
0A00
0000
79C0
3980
2D00
2D00
2D00
2500
6500
6700
E300
ENDCHAR

STARTCHAR Ograve
ENCODING 210
SWIDTH 760 0
DWIDTH 9 0
BBX 9 12 1 0
BITMAP
0C00
0600
0000
1E00
7300
6180
E180
C180
C300
C300
6600
3C00
ENDCHAR

STARTCHAR Oacute
ENCODING 211
SWIDTH 760 0
DWIDTH 9 0
BBX 9 12 1 0
BITMAP
0600
0C00
0000
1E00
7300
6180
E180
C180
C300
C300
6600
3C00
ENDCHAR

STARTCHAR Ocircumflex
ENCODING 212
SWIDTH 760 0
DWIDTH 9 0
BBX 9 12 1 0
BITMAP
0C00
1200
0000
1E00
7300
6180
E180
C180
C300
C300
6600
3C00
ENDCHAR

STARTCHAR Otilde
ENCODING 213
SWIDTH 760 0
DWIDTH 9 0
BBX 9 12 1 0
BITMAP
1E00
1400
0000
1E00
7300
6180
E180
C180
C300
C300
6600
3C00
ENDCHAR

STARTCHAR Odieresis
ENCODING 214
SWIDTH 760 0
DWIDTH 9 0
BBX 9 12 1 0
BITMAP
1B00
1B00
0000
1E00
7300
6180
E180
C180
C300
C300
6600
3C00
ENDCHAR

STARTCHAR multiply
ENCODING 215
SWIDTH 600 0
DWIDTH 7 0
BBX 6 6 1 1
BITMAP
C4
4C
30
30
C8
8C
ENDCHAR

STARTCHAR Oslash
ENCODING 216
SWIDTH 760 0
DWIDTH 9 0
BBX 10 9 1 0
BITMAP
1EC0
7380
6300
E700
CF00
DB00
F300
6600
FC00
ENDCHAR

STARTCHAR Ugrave
ENCODING 217
SWIDTH 740 0
DWIDTH 9 0
BBX 9 12 1 0
BITMAP
1800
0C00
0000
F380
6300
6200
6200
E200
C200
C200
C400
7800
ENDCHAR

STARTCHAR Uacute
ENCODING 218
SWIDTH 740 0
DWIDTH 9 0
BBX 9 12 1 0
BITMAP
0C00
1800
0000
F380
6300
6200
6200
E200
C200
C200
C400
7800
ENDCHAR

STARTCHAR Ucircumflex
ENCODING 219
SWIDTH 740 0
DWIDTH 9 0
BBX 9 12 1 0
BITMAP
1800
2400
0000
F380
6300
6200
6200
E200
C200
C200
C400
7800
ENDCHAR

STARTCHAR Udieresis
ENCODING 220
SWIDTH 740 0
DWIDTH 9 0
BBX 9 12 1 0
BITMAP
3600
3600
0000
F380
6300
6200
6200
E200
C200
C200
C400
7800
ENDCHAR

STARTCHAR Yacute
ENCODING 221
SWIDTH 660 0
DWIDTH 8 0
BBX 9 12 1 0
BITMAP
0C00
1800
0000
F780
6300
7600
3400
3C00
1800
3000
3000
7800
ENDCHAR

STARTCHAR Thorn
ENCODING 222
SWIDTH 640 0
DWIDTH 8 0
BBX 9 9 0 0
BITMAP
7C00
3000
3F00
3380
3380
3300
7E00
6000
F000
ENDCHAR

STARTCHAR germandbls
ENCODING 223
SWIDTH 660 0
DWIDTH 8 0
BBX 11 13 -2 -3
BITMAP
01C0
0360
0660
06C0
0FC0
06E0
0460
0C60
0CE0
0F80
0800
D800
F000
ENDCHAR

STARTCHAR agrave
ENCODING 224
SWIDTH 680 0
DWIDTH 8 0
BBX 8 9 1 0
BITMAP
18
0C
00
3E
66
C6
CC
CC
77
ENDCHAR

STARTCHAR aacute
ENCODING 225
SWIDTH 680 0
DWIDTH 8 0
BBX 8 9 1 0
BITMAP
0C
18
00
3E
66
C6
CC
CC
77
ENDCHAR

STARTCHAR acircumflex
ENCODING 226
SWIDTH 680 0
DWIDTH 8 0
BBX 8 9 1 0
BITMAP
18
24
00
3E
66
C6
CC
CC
77
ENDCHAR

STARTCHAR atilde
ENCODING 227
SWIDTH 680 0
DWIDTH 8 0
BBX 8 9 1 0
BITMAP
3C
20
00
3E
66
C6
CC
CC
77
ENDCHAR

STARTCHAR adieresis
ENCODING 228
SWIDTH 680 0
DWIDTH 8 0
BBX 8 9 1 0
BITMAP
36
34
00
3E
66
C6
CC
CC
77
ENDCHAR

STARTCHAR aring
ENCODING 229
SWIDTH 680 0
DWIDTH 8 0
BBX 8 10 1 0
BITMAP
1C
14
1C
00
3E
66
C6
CC
CC
77
ENDCHAR

STARTCHAR ae
ENCODING 230
SWIDTH 880 0
DWIDTH 11 0
BBX 10 6 0 0
BITMAP
79C0
0E40
7F80
CC00
CC40
F780
ENDCHAR

STARTCHAR ccedilla
ENCODING 231
SWIDTH 560 0
DWIDTH 7 0
BBX 6 9 1 -3
BITMAP
3C
6C
C0
C0
C4
78
20
70
60
ENDCHAR

STARTCHAR egrave
ENCODING 232
SWIDTH 560 0
DWIDTH 7 0
BBX 6 9 1 0
BITMAP
18
0C
00
3C
64
FC
C0
C4
78
ENDCHAR

STARTCHAR eacute
ENCODING 233
SWIDTH 560 0
DWIDTH 7 0
BBX 6 9 1 0
BITMAP
0C
18
00
3C
64
FC
C0
C4
78
ENDCHAR

STARTCHAR ecircumflex
ENCODING 234
SWIDTH 560 0
DWIDTH 7 0
BBX 6 9 1 0
BITMAP
18
24
00
3C
64
FC
C0
C4
78
ENDCHAR

STARTCHAR edieresis
ENCODING 235
SWIDTH 560 0
DWIDTH 7 0
BBX 7 9 1 0
BITMAP
36
36
00
3C
64
FC
C0
C4
78
ENDCHAR

STARTCHAR igrave
ENCODING 236
SWIDTH 380 0
DWIDTH 5 0
BBX 4 9 1 0
BITMAP
60
30
00
E0
60
60
C0
C0
70
ENDCHAR

STARTCHAR iacute
ENCODING 237
SWIDTH 380 0
DWIDTH 5 0
BBX 4 9 1 0
BITMAP
60
40
00
E0
60
60
C0
C0
70
ENDCHAR

STARTCHAR icircumflex
ENCODING 238
SWIDTH 380 0
DWIDTH 5 0
BBX 5 9 1 0
BITMAP
30
48
00
E0
60
60
C0
C0
70
ENDCHAR

STARTCHAR idieresis
ENCODING 239
SWIDTH 380 0
DWIDTH 5 0
BBX 5 9 1 0
BITMAP
D8
D8
00
E0
60
60
C0
C0
70
ENDCHAR

STARTCHAR eth
ENCODING 240
SWIDTH 600 0
DWIDTH 7 0
BBX 7 10 1 0
BITMAP
04
78
1C
0E
3E
66
C6
C6
CC
78
ENDCHAR

STARTCHAR ntilde
ENCODING 241
SWIDTH 680 0
DWIDTH 8 0
BBX 8 9 1 0
BITMAP
12
2C
00
FC
66
66
4C
CC
C7
ENDCHAR

STARTCHAR ograve
ENCODING 242
SWIDTH 600 0
DWIDTH 7 0
BBX 7 9 1 0
BITMAP
18
0C
00
3C
66
C6
C6
CC
78
ENDCHAR

STARTCHAR oacute
ENCODING 243
SWIDTH 600 0
DWIDTH 7 0
BBX 7 9 1 0
BITMAP
0C
18
00
3C
66
C6
C6
CC
78
ENDCHAR

STARTCHAR ocircumflex
ENCODING 244
SWIDTH 600 0
DWIDTH 7 0
BBX 7 9 1 0
BITMAP
18
24
00
3C
66
C6
C6
CC
78
ENDCHAR

STARTCHAR otilde
ENCODING 245
SWIDTH 600 0
DWIDTH 7 0
BBX 7 9 1 0
BITMAP
1A
26
00
3C
66
C6
C6
CC
78
ENDCHAR

STARTCHAR odieresis
ENCODING 246
SWIDTH 600 0
DWIDTH 7 0
BBX 7 9 1 0
BITMAP
36
36
00
3C
66
C6
C6
CC
78
ENDCHAR

STARTCHAR divide
ENCODING 247
SWIDTH 600 0
DWIDTH 7 0
BBX 6 7 1 1
BITMAP
30
30
00
FC
00
30
30
ENDCHAR

STARTCHAR oslash
ENCODING 248
SWIDTH 600 0
DWIDTH 7 0
BBX 8 7 1 0
BITMAP
03
3C
6E
DE
F6
EC
F8
ENDCHAR

STARTCHAR ugrave
ENCODING 249
SWIDTH 680 0
DWIDTH 8 0
BBX 8 9 1 0
BITMAP
18
0C
00
E6
66
64
4C
7E
77
ENDCHAR

STARTCHAR uacute
ENCODING 250
SWIDTH 680 0
DWIDTH 8 0
BBX 8 9 1 0
BITMAP
0C
18
00
E6
66
64
4C
7E
77
ENDCHAR

STARTCHAR ucircumflex
ENCODING 251
SWIDTH 680 0
DWIDTH 8 0
BBX 8 9 1 0
BITMAP
18
34
00
E6
66
64
4C
7E
77
ENDCHAR

STARTCHAR udieresis
ENCODING 252
SWIDTH 680 0
DWIDTH 8 0
BBX 8 9 1 0
BITMAP
36
36
00
E6
66
64
4C
7E
77
ENDCHAR

STARTCHAR yacute
ENCODING 253
SWIDTH 600 0
DWIDTH 7 0
BBX 7 12 0 -3
BITMAP
0C
18
00
76
66
66
66
66
7C
0C
CC
F8
ENDCHAR

STARTCHAR thorn
ENCODING 254
SWIDTH 660 0
DWIDTH 8 0
BBX 8 12 0 -3
BITMAP
38
18
18
37
3B
33
33
33
3E
60
60
F0
ENDCHAR

STARTCHAR ydieresis
ENCODING 255
SWIDTH 600 0
DWIDTH 7 0
BBX 7 12 0 -3
BITMAP
36
36
00
76
66
66
66
66
7C
0C
CC
F8
ENDCHAR
ENDFONT
